<svg width="418" height="63" viewBox="0 0 418 63" fill="none" xmlns="http://www.w3.org/2000/svg">
<rect x="224.5" y="0.5" width="193" height="62" rx="31" fill="white" stroke="#E1B49A"/>
<rect x="0.5" y="0.5" width="193" height="62" rx="31" fill="white" stroke="#E1B49A"/>
<path d="M113.698 29.0622H112.45V29H98.4998V35H107.26C105.982 38.4927 102.548 41 98.4998 41C93.3639 41 89.1999 36.9702 89.1999 32C89.1999 27.0297 93.3639 23 98.4998 23C100.87 23 103.027 23.8655 104.67 25.2792L109.054 21.0365C106.285 18.5397 102.582 17 98.4998 17C89.94 17 83 23.7162 83 32C83 40.2837 89.94 47 98.4998 47C107.06 47 114 40.2837 114 32C114 30.9942 113.893 30.0125 113.698 29.0622Z" fill="#FFC107"/>
<path d="M84.7861 25.0183L89.8786 28.6326C91.2566 25.3311 94.5937 23 98.4989 23C100.87 23 103.026 23.8655 104.669 25.2793L109.053 21.0365C106.285 18.5398 102.582 17 98.4989 17C92.5454 17 87.3824 20.2528 84.7861 25.0183Z" fill="#FF3D00"/>
<path d="M98.5002 47.0005C102.504 47.0005 106.142 45.5178 108.892 43.1065L104.095 39.178C102.486 40.3618 100.521 41.002 98.5002 41.0005C94.4686 41.0005 91.0455 38.5127 89.7559 35.041L84.7014 38.8097C87.2666 43.6675 92.4761 47.0005 98.5002 47.0005Z" fill="#4CAF50"/>
<path d="M113.699 29.0623H112.45V29H98.4998V35.0001H107.26C106.648 36.6625 105.547 38.1151 104.092 39.1785L104.095 39.177L108.892 43.1056C108.552 43.4041 114 39.5003 114 32.0001C114 30.9943 113.893 30.0125 113.699 29.0623Z" fill="#1976D2"/>
</svg>
