<svg width="48" height="42" viewBox="0 0 48 42" fill="none" xmlns="http://www.w3.org/2000/svg">
<path d="M40 36.75V33.25C40 31.3935 39.1571 29.613 37.6569 28.3003C36.1566 26.9875 34.1217 26.25 32 26.25H16C13.8783 26.25 11.8434 26.9875 10.3431 28.3003C8.84285 29.613 8 31.3935 8 33.25V36.75" fill="#D9D9D9"/>
<path d="M40 36.75V33.25C40 31.3935 39.1571 29.613 37.6569 28.3003C36.1566 26.9875 34.1217 26.25 32 26.25H16C13.8783 26.25 11.8434 26.9875 10.3431 28.3003C8.84285 29.613 8 31.3935 8 33.25V36.75" stroke="black" stroke-width="2" stroke-linecap="round" stroke-linejoin="round"/>
<path d="M24 19.25C28.4183 19.25 32 16.116 32 12.25C32 8.38401 28.4183 5.25 24 5.25C19.5817 5.25 16 8.38401 16 12.25C16 16.116 19.5817 19.25 24 19.25Z" fill="white" stroke="black" stroke-width="2" stroke-linecap="round" stroke-linejoin="round"/>
</svg>
