<svg width="195" height="63" viewBox="0 0 195 63" fill="none" xmlns="http://www.w3.org/2000/svg">
<rect x="1" y="0.5" width="193" height="62" rx="31" fill="white" stroke="#E1B49A"/>
<path d="M114.198 29.0622H112.95V29H98.9998V35H107.76C106.482 38.4927 103.048 41 98.9998 41C93.8639 41 89.6999 36.9702 89.6999 32C89.6999 27.0297 93.8639 23 98.9998 23C101.37 23 103.527 23.8655 105.17 25.2792L109.554 21.0365C106.785 18.5397 103.082 17 98.9998 17C90.44 17 83.5 23.7162 83.5 32C83.5 40.2837 90.44 47 98.9998 47C107.56 47 114.5 40.2837 114.5 32C114.5 30.9942 114.393 30.0125 114.198 29.0622Z" fill="#FFC107"/>
<path d="M85.2861 25.0183L90.3786 28.6326C91.7566 25.3311 95.0937 23 98.9989 23C101.37 23 103.526 23.8655 105.169 25.2793L109.553 21.0365C106.785 18.5398 103.082 17 98.9989 17C93.0454 17 87.8824 20.2528 85.2861 25.0183Z" fill="#FF3D00"/>
<path d="M99.0002 47.0005C103.004 47.0005 106.642 45.5178 109.392 43.1065L104.595 39.178C102.986 40.3618 101.021 41.002 99.0002 41.0005C94.9686 41.0005 91.5455 38.5127 90.2559 35.041L85.2014 38.8097C87.7666 43.6675 92.9761 47.0005 99.0002 47.0005Z" fill="#4CAF50"/>
<path d="M114.199 29.0623H112.95V29H98.9998V35.0001H107.76C107.148 36.6625 106.047 38.1151 104.592 39.1785L104.595 39.177L109.392 43.1056C109.052 43.4041 114.5 39.5003 114.5 32.0001C114.5 30.9943 114.393 30.0125 114.199 29.0623Z" fill="#1976D2"/>
</svg>
