<svg width="48" height="43" viewBox="0 0 48 43" fill="none" xmlns="http://www.w3.org/2000/svg">
<path d="M40 37.25V33.75C40 31.8935 39.1571 30.113 37.6569 28.8003C36.1566 27.4875 34.1217 26.75 32 26.75H16C13.8783 26.75 11.8434 27.4875 10.3431 28.8003C8.84285 30.113 8 31.8935 8 33.75V37.25" fill="#D9D9D9"/>
<path d="M40 37.25V33.75C40 31.8935 39.1571 30.113 37.6569 28.8003C36.1566 27.4875 34.1217 26.75 32 26.75H16C13.8783 26.75 11.8434 27.4875 10.3431 28.8003C8.84285 30.113 8 31.8935 8 33.75V37.25" stroke="black" stroke-width="2" stroke-linecap="round" stroke-linejoin="round"/>
<path d="M24 19.75C28.4183 19.75 32 16.616 32 12.75C32 8.88401 28.4183 5.75 24 5.75C19.5817 5.75 16 8.88401 16 12.75C16 16.616 19.5817 19.75 24 19.75Z" fill="white" stroke="black" stroke-width="2" stroke-linecap="round" stroke-linejoin="round"/>
</svg>
